<mxfile host="app.diagrams.net" agent="Mozilla/5.0 (Windows NT 10.0; Win64; x64) AppleWebKit/537.36 (KHTML, like Gecko) Chrome/141.0.0.0 Safari/537.36" version="28.2.5">
  <diagram name="Page-1" id="A7Lm5pUPHLF18ZlbcMqp">
    <mxGraphModel dx="1489" dy="787" grid="1" gridSize="10" guides="1" tooltips="1" connect="1" arrows="1" fold="1" page="1" pageScale="1" pageWidth="850" pageHeight="1100" math="0" shadow="0">
      <root>
        <mxCell id="0" />
        <mxCell id="1" parent="0" />
        <mxCell id="AuiOzlYgSfAzdWoN9nDc-4" value="" style="edgeStyle=orthogonalEdgeStyle;rounded=0;orthogonalLoop=1;jettySize=auto;html=1;" edge="1" parent="1" source="AuiOzlYgSfAzdWoN9nDc-1" target="AuiOzlYgSfAzdWoN9nDc-2">
          <mxGeometry relative="1" as="geometry" />
        </mxCell>
        <mxCell id="AuiOzlYgSfAzdWoN9nDc-1" value="START" style="strokeWidth=2;html=1;shape=mxgraph.flowchart.terminator;whiteSpace=wrap;fontSize=14;" vertex="1" parent="1">
          <mxGeometry x="373" y="20" width="105" height="50" as="geometry" />
        </mxCell>
        <mxCell id="AuiOzlYgSfAzdWoN9nDc-5" value="" style="edgeStyle=orthogonalEdgeStyle;rounded=0;orthogonalLoop=1;jettySize=auto;html=1;" edge="1" parent="1" source="AuiOzlYgSfAzdWoN9nDc-2" target="AuiOzlYgSfAzdWoN9nDc-3">
          <mxGeometry relative="1" as="geometry" />
        </mxCell>
        <mxCell id="AuiOzlYgSfAzdWoN9nDc-2" value="define coeficient matrix&lt;div&gt;from lowest degree&lt;/div&gt;" style="verticalLabelPosition=middle;verticalAlign=middle;html=1;shape=hexagon;perimeter=hexagonPerimeter2;arcSize=6;size=0.27;labelPosition=center;align=center;fontSize=14;" vertex="1" parent="1">
          <mxGeometry x="340" y="130" width="170" height="80" as="geometry" />
        </mxCell>
        <mxCell id="AuiOzlYgSfAzdWoN9nDc-7" value="" style="edgeStyle=orthogonalEdgeStyle;rounded=0;orthogonalLoop=1;jettySize=auto;html=1;" edge="1" parent="1" source="AuiOzlYgSfAzdWoN9nDc-3" target="AuiOzlYgSfAzdWoN9nDc-6">
          <mxGeometry relative="1" as="geometry" />
        </mxCell>
        <mxCell id="AuiOzlYgSfAzdWoN9nDc-3" value="define empty matrix&lt;div&gt;with size coef mtx + 1&lt;/div&gt;" style="verticalLabelPosition=middle;verticalAlign=middle;html=1;shape=hexagon;perimeter=hexagonPerimeter2;arcSize=6;size=0.27;labelPosition=center;align=center;fontSize=14;" vertex="1" parent="1">
          <mxGeometry x="340" y="280" width="170" height="80" as="geometry" />
        </mxCell>
        <mxCell id="AuiOzlYgSfAzdWoN9nDc-9" value="" style="edgeStyle=orthogonalEdgeStyle;rounded=0;orthogonalLoop=1;jettySize=auto;html=1;" edge="1" parent="1" source="AuiOzlYgSfAzdWoN9nDc-6" target="AuiOzlYgSfAzdWoN9nDc-8">
          <mxGeometry relative="1" as="geometry" />
        </mxCell>
        <mxCell id="AuiOzlYgSfAzdWoN9nDc-6" value="solution[last index] = 0" style="rounded=1;whiteSpace=wrap;html=1;absoluteArcSize=1;arcSize=0;strokeWidth=2;fontSize=14;" vertex="1" parent="1">
          <mxGeometry x="345" y="430" width="160" height="80" as="geometry" />
        </mxCell>
        <mxCell id="AuiOzlYgSfAzdWoN9nDc-11" value="" style="edgeStyle=orthogonalEdgeStyle;rounded=0;orthogonalLoop=1;jettySize=auto;html=1;" edge="1" parent="1" source="AuiOzlYgSfAzdWoN9nDc-8" target="AuiOzlYgSfAzdWoN9nDc-10">
          <mxGeometry relative="1" as="geometry" />
        </mxCell>
        <mxCell id="AuiOzlYgSfAzdWoN9nDc-17" value="&lt;span style=&quot;font-size: 14px;&quot;&gt;TRUE&lt;/span&gt;" style="edgeLabel;html=1;align=center;verticalAlign=middle;resizable=0;points=[];" vertex="1" connectable="0" parent="AuiOzlYgSfAzdWoN9nDc-11">
          <mxGeometry x="-0.1063" y="-1" relative="1" as="geometry">
            <mxPoint as="offset" />
          </mxGeometry>
        </mxCell>
        <mxCell id="AuiOzlYgSfAzdWoN9nDc-14" style="edgeStyle=orthogonalEdgeStyle;rounded=0;orthogonalLoop=1;jettySize=auto;html=1;exitX=1;exitY=0.5;exitDx=0;exitDy=0;exitPerimeter=0;entryX=1;entryY=0.5;entryDx=0;entryDy=0;" edge="1" parent="1" source="AuiOzlYgSfAzdWoN9nDc-8" target="AuiOzlYgSfAzdWoN9nDc-13">
          <mxGeometry relative="1" as="geometry">
            <Array as="points">
              <mxPoint x="600" y="650" />
              <mxPoint x="600" y="990" />
            </Array>
          </mxGeometry>
        </mxCell>
        <mxCell id="AuiOzlYgSfAzdWoN9nDc-18" value="&lt;font style=&quot;font-size: 14px;&quot;&gt;FALSE&lt;/font&gt;" style="edgeLabel;html=1;align=center;verticalAlign=middle;resizable=0;points=[];" vertex="1" connectable="0" parent="AuiOzlYgSfAzdWoN9nDc-14">
          <mxGeometry x="-0.8606" relative="1" as="geometry">
            <mxPoint as="offset" />
          </mxGeometry>
        </mxCell>
        <mxCell id="AuiOzlYgSfAzdWoN9nDc-8" value="i = coef mtx size - 1&lt;div&gt;i &amp;gt;= 0&lt;/div&gt;" style="strokeWidth=2;html=1;shape=mxgraph.flowchart.decision;whiteSpace=wrap;fontSize=14;" vertex="1" parent="1">
          <mxGeometry x="348.93" y="580" width="153.13" height="140" as="geometry" />
        </mxCell>
        <mxCell id="AuiOzlYgSfAzdWoN9nDc-10" value="solution[i] = coef mtx[i]&lt;div&gt;+ x * solution[i + 1]&lt;/div&gt;" style="rounded=1;whiteSpace=wrap;html=1;absoluteArcSize=1;arcSize=0;strokeWidth=2;fontSize=14;" vertex="1" parent="1">
          <mxGeometry x="345" y="790" width="160" height="80" as="geometry" />
        </mxCell>
        <mxCell id="AuiOzlYgSfAzdWoN9nDc-12" style="edgeStyle=orthogonalEdgeStyle;rounded=0;orthogonalLoop=1;jettySize=auto;html=1;exitX=0;exitY=0.5;exitDx=0;exitDy=0;entryX=0;entryY=0.5;entryDx=0;entryDy=0;entryPerimeter=0;" edge="1" parent="1" source="AuiOzlYgSfAzdWoN9nDc-10" target="AuiOzlYgSfAzdWoN9nDc-8">
          <mxGeometry relative="1" as="geometry">
            <Array as="points">
              <mxPoint x="250" y="830" />
              <mxPoint x="250" y="650" />
            </Array>
          </mxGeometry>
        </mxCell>
        <mxCell id="AuiOzlYgSfAzdWoN9nDc-16" value="" style="edgeStyle=orthogonalEdgeStyle;rounded=0;orthogonalLoop=1;jettySize=auto;html=1;" edge="1" parent="1" source="AuiOzlYgSfAzdWoN9nDc-13" target="AuiOzlYgSfAzdWoN9nDc-15">
          <mxGeometry relative="1" as="geometry" />
        </mxCell>
        <mxCell id="AuiOzlYgSfAzdWoN9nDc-13" value="return solution[0] as f(x)" style="rounded=1;whiteSpace=wrap;html=1;absoluteArcSize=1;arcSize=0;strokeWidth=2;fontSize=14;" vertex="1" parent="1">
          <mxGeometry x="345.5" y="950" width="160" height="80" as="geometry" />
        </mxCell>
        <mxCell id="AuiOzlYgSfAzdWoN9nDc-15" value="END" style="strokeWidth=2;html=1;shape=mxgraph.flowchart.terminator;whiteSpace=wrap;fontSize=14;" vertex="1" parent="1">
          <mxGeometry x="150" y="965" width="105" height="50" as="geometry" />
        </mxCell>
      </root>
    </mxGraphModel>
  </diagram>
</mxfile>
